<svg id="cctv" xmlns="http://www.w3.org/2000/svg" width="1280" height="720" viewBox="0 0 1280 720"><title>cctv</title><rect width="1280" height="720" fill="#686868"/><rect width="1280" height="540" fill="#bdbdbd"/><rect width="1280" height="180" fill="#8c8c8c"/><rect y="360" width="1280" height="180" fill="#9b9b9b"/><g id="text"><path d="M367.7,379.3l-12.5-38.4h5.4l5.9,18.9a146.7,146.7,0,0,1,4.1,14.4h.2c1-4.5,2.6-9.3,4.3-14.4l6.5-18.9h5.3l-13.7,38.4Z" fill="#f91436"/><path d="M395.6,343.9a3,3,0,0,1-3.2,3.1,3.1,3.1,0,0,1,.1-6.2A3,3,0,0,1,395.6,343.9ZM390,379.3V351.7h5v27.6Z" fill="#f91436"/><path d="M427.2,338.8v33.4c0,2.4,0,5.2.2,7.1h-4.5l-.2-4.8h-.1a10.2,10.2,0,0,1-9.4,5.4c-6.7,0-11.8-5.6-11.8-14s5.6-14.8,12.3-14.8c4.3,0,7.1,2,8.4,4.2h.1V338.8Zm-5,24.1a7.6,7.6,0,0,0-.3-2.1,7.2,7.2,0,0,0-7.2-5.8c-5.2,0-8.3,4.6-8.3,10.7s2.8,10.2,8.2,10.2a7.5,7.5,0,0,0,7.3-6,7.8,7.8,0,0,0,.3-2.2Z" fill="#f91436"/><path d="M438.3,366.4c.1,6.8,4.5,9.6,9.5,9.6a19.7,19.7,0,0,0,7.6-1.4l.9,3.5a22.2,22.2,0,0,1-9.2,1.8c-8.5,0-13.6-5.6-13.6-14s4.9-14.8,13-14.8,11.4,7.9,11.4,13c0,1-.2,1.8-.2,2.3Zm14.7-3.6c.1-3.2-1.3-8.1-6.9-8.1s-7.3,4.6-7.7,8.1Z" fill="#f91436"/><path d="M489,365.3c0,10.2-7,14.6-13.7,14.6s-13.2-5.5-13.2-14.2,6-14.6,13.7-14.6S489,356.8,489,365.3Zm-21.8.2c0,6.1,3.4,10.6,8.3,10.6s8.4-4.5,8.4-10.7c0-4.6-2.3-10.6-8.3-10.6S467.2,360.3,467.2,365.5Z" fill="#f91436"/><path d="M508,379.3V355.5h-3.9v-3.8H508v-1.3c0-3.9.8-7.4,3.2-9.7a9.5,9.5,0,0,1,6.7-2.5,11.7,11.7,0,0,1,4.3.8l-.7,3.9a6.9,6.9,0,0,0-3.2-.7c-4.3,0-5.4,3.8-5.4,8v1.5h6.7v3.8h-6.7v23.8Z" fill="#f91436"/><path d="M526.2,366.4c.1,6.8,4.4,9.6,9.4,9.6a20.3,20.3,0,0,0,7.7-1.4l.8,3.5a22.2,22.2,0,0,1-9.2,1.8c-8.5,0-13.5-5.6-13.5-14s4.9-14.8,12.9-14.8,11.4,7.9,11.4,13a12.1,12.1,0,0,1-.2,2.3Zm14.7-3.6c0-3.2-1.3-8.1-7-8.1s-7.3,4.6-7.7,8.1Z" fill="#f91436"/><path d="M554.7,366.4c.1,6.8,4.5,9.6,9.5,9.6a19.7,19.7,0,0,0,7.6-1.4l.9,3.5a22.2,22.2,0,0,1-9.2,1.8c-8.5,0-13.6-5.6-13.6-14s4.9-14.8,13-14.8,11.4,7.9,11.4,13a12.1,12.1,0,0,1-.2,2.3Zm14.7-3.6c.1-3.2-1.3-8.1-6.9-8.1s-7.3,4.6-7.7,8.1Z" fill="#f91436"/><path d="M604.3,338.8v33.4c0,2.4.1,5.2.2,7.1H600l-.2-4.8h-.1a10.1,10.1,0,0,1-9.4,5.4c-6.7,0-11.8-5.6-11.8-14s5.6-14.8,12.4-14.8c4.2,0,7,2,8.3,4.2h.1V338.8Zm-5,24.1a14.9,14.9,0,0,0-.2-2.1,7.4,7.4,0,0,0-7.3-5.8c-5.2,0-8.2,4.6-8.2,10.7s2.7,10.2,8.1,10.2a7.6,7.6,0,0,0,7.4-6,15,15,0,0,0,.2-2.2Z" fill="#f91436"/><path d="M624.7,359.2c0-2.9,0-5.2-.2-7.5h4.4l.3,4.6h.1a10.1,10.1,0,0,1,9.2-5.2c3.8,0,9.7,2.2,9.7,11.7v16.5h-5V363.4c0-4.5-1.7-8.2-6.4-8.2a7.1,7.1,0,0,0-6.7,5.2,5.3,5.3,0,0,0-.4,2.3v16.6h-5Z" fill="#f91436"/><path d="M681.3,365.3c0,10.2-7,14.6-13.7,14.6s-13.2-5.5-13.2-14.2,6-14.6,13.6-14.6S681.3,356.8,681.3,365.3Zm-21.9.2c0,6.1,3.5,10.6,8.4,10.6s8.4-4.5,8.4-10.7c0-4.6-2.3-10.6-8.3-10.6S659.4,360.3,659.4,365.5Z" fill="#f91436"/><path d="M693.7,343.8v7.9h7.2v3.8h-7.2v14.9c0,3.4,1,5.3,3.8,5.3a10.7,10.7,0,0,0,2.9-.3l.2,3.8a12.4,12.4,0,0,1-4.5.7,6.9,6.9,0,0,1-5.4-2.2c-1.4-1.4-1.9-3.9-1.9-7.1V355.5h-4.3v-3.8h4.3v-6.6Z" fill="#f91436"/><path d="M719.1,379.3V355.5h-3.9v-3.8h3.9v-1.3c0-3.9.9-7.4,3.2-9.7a9.7,9.7,0,0,1,6.7-2.5,11.7,11.7,0,0,1,4.3.8l-.7,3.9a6.3,6.3,0,0,0-3.2-.7c-4.2,0-5.3,3.8-5.3,8v1.5h6.7v3.8h-6.7v23.8Z" fill="#f91436"/><path d="M759.5,365.3c0,10.2-7.1,14.6-13.8,14.6s-13.2-5.5-13.2-14.2,6.1-14.6,13.7-14.6S759.5,356.8,759.5,365.3Zm-21.9.2c0,6.1,3.5,10.6,8.4,10.6s8.4-4.5,8.4-10.7c0-4.6-2.4-10.6-8.3-10.6S737.6,360.3,737.6,365.5Z" fill="#f91436"/><path d="M788.9,371.8c0,2.8.1,5.3.2,7.5h-4.4l-.3-4.5h-.1a10.4,10.4,0,0,1-9.1,5.1c-4.4,0-9.6-2.4-9.6-12.1V351.7h5.1V367c0,5.2,1.6,8.7,6.1,8.7a7.2,7.2,0,0,0,6.6-4.5,7.5,7.5,0,0,0,.5-2.6V351.7h5Z" fill="#f91436"/><path d="M797.2,359.2c0-2.9,0-5.2-.2-7.5h4.4l.3,4.6h.1a10.1,10.1,0,0,1,9.2-5.2c3.8,0,9.7,2.2,9.7,11.7v16.5h-5V363.4c0-4.5-1.7-8.2-6.4-8.2a7.1,7.1,0,0,0-6.7,5.2,7.3,7.3,0,0,0-.4,2.3v16.6h-5Z" fill="#f91436"/><path d="M852.7,338.8v33.4c0,2.4,0,5.2.2,7.1h-4.5l-.2-4.8h-.1a10.2,10.2,0,0,1-9.4,5.4c-6.7,0-11.8-5.6-11.8-14s5.6-14.8,12.3-14.8c4.3,0,7.1,2,8.4,4.2h.1V338.8Zm-5,24.1a7.6,7.6,0,0,0-.3-2.1,7.2,7.2,0,0,0-7.2-5.8c-5.2,0-8.3,4.6-8.3,10.7s2.8,10.2,8.2,10.2a7.5,7.5,0,0,0,7.3-6,7.8,7.8,0,0,0,.3-2.2Z" fill="#f91436"/></g></svg>