<svg xmlns="http://www.w3.org/2000/svg"><symbol id="backward" viewBox="0 0 256 256"><path fill="#070606" d="M136.1 128l89.1 56.7V71.3zm0-56.7v113.4l-81-56.7zM30.8 79.4h24.3v97.2H30.8z"/></symbol><symbol id="forward" viewBox="0 0 256 256"><path fill="#070606" d="M119.9 128l-89.1 56.7V71.3zm0-56.7v113.4l81-56.7zm105.3 8.1h-24.3v97.2h24.3z"/></symbol><symbol id="pause" viewBox="0 0 256 256"><path fill="#070606" d="M118 227.7H78.1V28.3H118zm59.9-199.4H138v199.4h39.9z"/></symbol><symbol id="power" viewBox="0 0 256 256"><path fill="#070606" d="M143.6 128h-31.2V34.4h31.2zm32.9-79.9L167 60.6a78 78 0 1 1-78 0l-9.5-12.5a93.6 93.6 0 1 0 97 0z"/></symbol><symbol id="stats" viewBox="0 0 1000 1000"><path fill="#92d5d4" d="M37.9 825a17.4 17.4 0 0 0 8.6 2.4c4.9 0 7.8-2.5 7.8-6.3s-2-5.4-7-7.4-9.8-5.2-9.8-10.5 4.8-10 12-10a17.4 17.4 0 0 1 8.2 1.8l-1.3 3.9a14.7 14.7 0 0 0-7.1-1.8c-5 0-7 3.1-7 5.6s2.3 5.2 7.4 7.1 9.5 5.5 9.5 10.9-4.3 10.7-13 10.7c-3.6 0-7.5-1-9.5-2.4zm49.9-1.4c0 2.7.1 5.2.2 7.2h-4.3l-.2-4.3h-.2a10 10 0 0 1-8.8 5c-4.1 0-9.1-2.4-9.1-11.7v-15.6h4.8V819c0 5 1.5 8.4 5.9 8.4a6.9 6.9 0 0 0 6.4-4.4 6.4 6.4 0 0 0 .5-2.4v-16.4h4.8zm125.3-9c-.3-5.2-.6-11.4-.6-16h-.1c-1.3 4.3-2.8 8.9-4.7 14l-6.5 18h-3.7l-6-17.6c-1.7-5.2-3.2-10-4.2-14.4h-.2c-.1 4.6-.3 10.8-.7 16.4l-1 15.8h-4.5l2.6-37h6.1l6.3 17.9c1.5 4.6 2.8 8.6 3.7 12.5h.2a122.2 122.2 0 0 1 3.9-12.5l6.6-17.9h6.1l2.3 37H214zm37.2 2.7c0 9.9-6.8 14.2-13.2 14.2s-12.8-5.3-12.8-13.7 5.8-14.2 13.2-14.2 12.8 5.6 12.8 13.7zm-21.1.3c0 5.8 3.3 10.2 8.1 10.2s8.1-4.3 8.1-10.3c0-4.5-2.3-10.2-8-10.2s-8.2 5.2-8.2 10.3zm103-19.7h-11.3v-4.1h27.4v4.1H337v32.9h-4.8zm39.9 25.7c0 2.7 0 5.2.2 7.2H368l-.3-4.3h-.1a10 10 0 0 1-8.8 5c-4.1 0-9.2-2.4-9.2-11.7v-15.6h4.9V819c0 5 1.5 8.4 5.9 8.4a6.9 6.9 0 0 0 6.4-4.4 6.4 6.4 0 0 0 .4-2.4v-16.4h4.9zm102.3 7.2l-9.4-37h5.1l4.4 18.7c1.1 4.7 2.1 9.3 2.8 12.8h.1c.6-3.6 1.7-8 3-12.8l4.9-18.7h5l4.5 18.8a114.8 114.8 0 0 1 2.6 12.7h.1c.8-4.1 1.9-8.2 3-12.8l4.9-18.7h4.9l-10.5 37h-5l-4.7-19.3c-1.1-4.7-1.9-8.3-2.4-12h-.1a119.8 119.8 0 0 1-2.9 12l-5.3 19.3zm41.2-12.4c.1 6.6 4.3 9.3 9.1 9.3a17 17 0 0 0 7.4-1.4l.8 3.4a20.7 20.7 0 0 1-8.8 1.7c-8.2 0-13.1-5.4-13.1-13.4s4.7-14.4 12.5-14.4 11 7.7 11 12.6a10.9 10.9 0 0 1-.2 2.2zm14.2-3.4c.1-3.1-1.3-7.9-6.7-7.9s-7 4.5-7.4 7.9zm88.9-17.1h-11.3v-4.1h27.5v4.1h-11.4v32.9h-4.8zm19.7-6.1h4.9v16.6h.1a8.8 8.8 0 0 1 3.5-3.4 10 10 0 0 1 4.9-1.4c3.6 0 9.3 2.2 9.3 11.4v15.8h-4.8v-15.2c0-4.3-1.6-8-6.2-8a7 7 0 0 0-6.5 4.9 5.4 5.4 0 0 0-.3 2.3v16h-4.9zm116.5 2h20v4h-15.2v12.3h14v4h-14v16.7h-4.8zm25.2 18.7c0-3.1 0-5.8-.2-8.3h4.2l.2 5.3h.2c1.2-3.6 4.1-5.9 7.4-5.9l1.4.2v4.6l-1.7-.2c-3.4 0-5.8 2.6-6.5 6.2a15.2 15.2 0 0 0-.2 2.3v14.1h-4.8zM897.5 825a17.4 17.4 0 0 0 8.6 2.4c4.9 0 7.8-2.5 7.8-6.3s-2-5.4-7-7.4-9.8-5.2-9.8-10.5 4.8-10 12-10a17.4 17.4 0 0 1 8.2 1.8l-1.3 3.9a14.3 14.3 0 0 0-7.1-1.8c-5 0-7 3.1-7 5.6s2.3 5.2 7.4 7.1 9.5 5.5 9.5 10.9-4.3 10.7-13 10.7c-3.6 0-7.5-1-9.5-2.4zm49.9-1.4c0 2.7.1 5.2.2 7.2h-4.3l-.2-4.3h-.1a10.2 10.2 0 0 1-8.8 5c-4.2 0-9.2-2.4-9.2-11.7v-15.6h4.8V819c0 5 1.6 8.4 6 8.4a6.9 6.9 0 0 0 6.3-4.4 6.4 6.4 0 0 0 .5-2.4v-16.4h4.8z"/><path fill="#fcd80f" d="M176.3 701.8H234v57.71h-57.7zm286.6 0h57.7v57.71h-57.7z"/><path fill="#f91436" d="M749.4 359.2h57.7v400.34h-57.7z"/><path fill="none" stroke="#92d5d4" stroke-miterlimit="10" stroke-width="7" d="M33 759.5h917.4"/></symbol><symbol id="stop" viewBox="0 0 256 256"><path fill="#070606" d="M130.1 53.2v71.7c0 3.2 5.8 3.3 5.8 0V64.7c0-11.4 20.1-11.7 20.1 0v68.2c0 4.2 4.1 4.8 5.7 1.7l7.6-16.7c6.2-13 26.9-5.1 20.4 10.1-1.6 4.1-21.3 49-26.4 60.3s-15.5 23.6-34.6 23.6H95.6c-20 0-30.6-11.9-30.6-32.7V88.5c0-12.1 16.6-11.4 16.6-.6v39.8c0 3.3 6 3.3 6 0V63.8c0-12.4 18.6-12.1 18.6 0v60.4c0 3.3 5.5 3.1 5.5-.1V53.2c0-12 18.4-12.4 18.4 0zM121 27.3A26 26 0 0 0 99.8 38c-15.4-1.7-28.5 9.6-28.9 24.9-13.1 1.2-22.6 11.8-22.6 25.6v90.7c0 30.6 18.1 49.5 47.3 49.5h33.1c22.6 0 40.3-11.9 50-33.6 3.7-8.2 24.1-54.5 26.6-60.8 3.9-9.4 3.1-19.3-2.1-27.1a28.8 28.8 0 0 0-30.4-11.9V64.7c0-16.1-13.8-26.9-29.7-25.3-4.4-7.4-12.5-12.1-22.1-12.1z"/></symbol><symbol id="tel" viewBox="0 0 256 256"><path fill="#070606" d="M57.4 38.4l23.9-11.1 33.9 66.2-22.9 11.3c-4.5 10.5 18.1 52.7 27.7 53.4l22.4-11.1 34.5 66.6-23.9 11.7C87 255.5-7.4 72.1 57.4 38.4zm16.2 10.7L65 53.3c-44.4 23.2 35.1 177.8 81 156.8l8.2-3.9-19.1-36.8-8.6 4.2c-26.6 13-69.4-69-42.5-83.5l8.5-4.1zm65.7 64.2l24.5 7.3a25.5 25.5 0 0 0-17.2-31.8zm15.2-50.9a53.1 53.1 0 0 1 35.7 66l-15.1-4.5A37.2 37.2 0 0 0 150 77.5zm8-26.7a80.7 80.7 0 0 1 54.4 100.7l-15.4-4.6a64.9 64.9 0 0 0-43.6-80.7z"/></symbol><symbol id="warning" viewBox="0 0 256 256"><path fill="#070606" d="M128 65.5l79 144.9H49zm0-38.2L18.1 228.7h219.8zm-9.2 82.4h18.4v54.9h-18.4zM128 199a11.5 11.5 0 1 1 11.4-11.5A11.5 11.5 0 0 1 128 199z"/></symbol></svg>