<svg id="stats" xmlns="http://www.w3.org/2000/svg" width="1000" height="1000" viewBox="0 0 1000 1000"><title>stats</title><g id="days"><path d="M37.9,825a17.4,17.4,0,0,0,8.6,2.4c4.9,0,7.8-2.5,7.8-6.3s-2-5.4-7-7.4-9.8-5.2-9.8-10.5,4.8-10,12-10a17.4,17.4,0,0,1,8.2,1.8l-1.3,3.9a14.7,14.7,0,0,0-7.1-1.8c-5,0-7,3.1-7,5.6s2.3,5.2,7.4,7.1,9.5,5.5,9.5,10.9-4.3,10.7-13,10.7c-3.6,0-7.5-1-9.5-2.4Z" fill="#92d5d4"/><path d="M87.8,823.6c0,2.7.1,5.2.2,7.2H83.7l-.2-4.3h-.2a10,10,0,0,1-8.8,5c-4.1,0-9.1-2.4-9.1-11.7V804.2h4.8V819c0,5,1.5,8.4,5.9,8.4a6.9,6.9,0,0,0,6.4-4.4,6.4,6.4,0,0,0,.5-2.4V804.2h4.8Z" fill="#92d5d4"/><path d="M213.1,814.6c-.3-5.2-.6-11.4-.6-16h-.1c-1.3,4.3-2.8,8.9-4.7,14l-6.5,18h-3.7l-6-17.6c-1.7-5.2-3.2-10-4.2-14.4h-.2c-.1,4.6-.3,10.8-.7,16.4l-1,15.8h-4.5l2.6-37h6.1l6.3,17.9c1.5,4.6,2.8,8.6,3.7,12.5h.2a122.2,122.2,0,0,1,3.9-12.5l6.6-17.9h6.1l2.3,37H214Z" fill="#92d5d4"/><path d="M250.3,817.3c0,9.9-6.8,14.2-13.2,14.2s-12.8-5.3-12.8-13.7,5.8-14.2,13.2-14.2S250.3,809.2,250.3,817.3Zm-21.1.3c0,5.8,3.3,10.2,8.1,10.2s8.1-4.3,8.1-10.3c0-4.5-2.3-10.2-8-10.2S229.2,812.5,229.2,817.6Z" fill="#92d5d4"/><path d="M332.2,797.9H320.9v-4.1h27.4v4.1H337v32.9h-4.8Z" fill="#92d5d4"/><path d="M372.1,823.6c0,2.7,0,5.2.2,7.2H368l-.3-4.3h-.1a10,10,0,0,1-8.8,5c-4.1,0-9.2-2.4-9.2-11.7V804.2h4.9V819c0,5,1.5,8.4,5.9,8.4a6.9,6.9,0,0,0,6.4-4.4,6.4,6.4,0,0,0,.4-2.4V804.2h4.9Z" fill="#92d5d4"/><path d="M474.4,830.8l-9.4-37h5.1l4.4,18.7c1.1,4.7,2.1,9.3,2.8,12.8h.1c.6-3.6,1.7-8,3-12.8l4.9-18.7h5l4.5,18.8a114.8,114.8,0,0,1,2.6,12.7h.1c.8-4.1,1.9-8.2,3-12.8l4.9-18.7h4.9l-10.5,37h-5l-4.7-19.3c-1.1-4.7-1.9-8.3-2.4-12h-.1a119.8,119.8,0,0,1-2.9,12l-5.3,19.3Z" fill="#92d5d4"/><path d="M515.6,818.4c.1,6.6,4.3,9.3,9.1,9.3a17,17,0,0,0,7.4-1.4l.8,3.4a20.7,20.7,0,0,1-8.8,1.7c-8.2,0-13.1-5.4-13.1-13.4s4.7-14.4,12.5-14.4,11,7.7,11,12.6a10.9,10.9,0,0,1-.2,2.2Zm14.2-3.4c.1-3.1-1.3-7.9-6.7-7.9s-7,4.5-7.4,7.9Z" fill="#92d5d4"/><path d="M618.7,797.9H607.4v-4.1h27.5v4.1H623.5v32.9h-4.8Z" fill="#92d5d4"/><path d="M638.4,791.8h4.9v16.6h.1a8.8,8.8,0,0,1,3.5-3.4,10,10,0,0,1,4.9-1.4c3.6,0,9.3,2.2,9.3,11.4v15.8h-4.8V815.6c0-4.3-1.6-8-6.2-8a7,7,0,0,0-6.5,4.9,5.4,5.4,0,0,0-.3,2.3v16h-4.9Z" fill="#92d5d4"/><path d="M754.9,793.8h20v4H759.7v12.3h14v4h-14v16.7h-4.8Z" fill="#92d5d4"/><path d="M780.1,812.5c0-3.1,0-5.8-.2-8.3h4.2l.2,5.3h.2c1.2-3.6,4.1-5.9,7.4-5.9l1.4.2v4.6l-1.7-.2c-3.4,0-5.8,2.6-6.5,6.2a15.2,15.2,0,0,0-.2,2.3v14.1h-4.8Z" fill="#92d5d4"/><path d="M897.5,825a17.4,17.4,0,0,0,8.6,2.4c4.9,0,7.8-2.5,7.8-6.3s-2-5.4-7-7.4-9.8-5.2-9.8-10.5,4.8-10,12-10a17.4,17.4,0,0,1,8.2,1.8l-1.3,3.9a14.3,14.3,0,0,0-7.1-1.8c-5,0-7,3.1-7,5.6s2.3,5.2,7.4,7.1,9.5,5.5,9.5,10.9-4.3,10.7-13,10.7c-3.6,0-7.5-1-9.5-2.4Z" fill="#92d5d4"/><path d="M947.4,823.6c0,2.7.1,5.2.2,7.2h-4.3l-.2-4.3H943a10.2,10.2,0,0,1-8.8,5c-4.2,0-9.2-2.4-9.2-11.7V804.2h4.8V819c0,5,1.6,8.4,6,8.4a6.9,6.9,0,0,0,6.3-4.4,6.4,6.4,0,0,0,.5-2.4V804.2h4.8Z" fill="#92d5d4"/></g><rect id="mo-bar" x="176.3" y="701.8" width="57.7" height="57.71" fill="#fcd80f"/><rect id="we-bar" x="462.9" y="701.8" width="57.7" height="57.71" fill="#fcd80f"/><rect id="fr-bar" x="749.4" y="359.2" width="57.7" height="400.34" fill="#f91436"/><line id="bottom-edge" x1="33" y1="759.5" x2="950.4" y2="759.5" fill="none" stroke="#92d5d4" stroke-miterlimit="10" stroke-width="7"/></svg>